<?xml version="1.0" standalone="no"?>
<!DOCTYPE svg PUBLIC "-//W3C//DTD SVG 20010904//EN"
 "http://www.w3.org/TR/2001/REC-SVG-20010904/DTD/svg10.dtd">
<svg version="1.0" xmlns="http://www.w3.org/2000/svg"
 width="768.000000pt" height="768.000000pt" viewBox="0 0 768.000000 768.000000"
 preserveAspectRatio="xMidYMid meet">
<g transform="translate(0.000000,768.000000) scale(0.100000,-0.100000)"
stroke="none">
<path d="M613 7169 c-153 -70 -190 -271 -72 -389 69 -68 25 -64 854 -70 l750
-5 5 -410 c6 -430 4 -418 54 -525 27 -58 148 -179 206 -206 52 -25 141 -52
185 -56 l30 -3 5 -390 c6 -431 6 -432 73 -495 17 -17 115 -73 217 -124 l185
-92 5 -1160 c5 -1094 6 -1161 23 -1198 11 -24 120 -141 286 -306 288 -288 317
-310 411 -310 94 0 123 22 411 310 166 165 275 282 286 306 17 37 18 104 23
1198 l5 1159 120 60 c66 32 127 63 135 67 8 5 38 21 67 34 61 30 107 74 131
125 15 31 18 85 22 426 l5 390 30 3 c44 4 133 31 185 56 58 27 179 148 206
206 49 106 48 95 54 525 l5 410 750 5 c829 6 785 2 854 70 119 120 80 321 -76
390 -45 20 -54 20 -3217 19 -3107 -1 -3172 -1 -3213 -20z m4412 -819 l0 -355
-1195 0 -1195 0 -3 345 c-1 190 0 351 3 357 3 11 245 13 1197 11 l1193 -3 0
-355z m-480 -1129 l0 -285 -145 -73 -145 -73 -431 0 c-371 0 -433 2 -444 15
-7 8 -18 15 -24 15 -6 0 -63 26 -126 58 l-115 59 -3 274 c-1 150 0 279 3 286
3 11 148 13 717 11 l713 -3 0 -284z m-480 -1060 l0 -144 -50 -14 c-27 -8 -68
-18 -90 -22 -22 -4 -56 -12 -75 -18 -67 -21 -184 -49 -235 -55 -19 -3 -20 4
-23 187 -1 104 0 195 3 202 3 11 54 13 237 11 l233 -3 0 -144z m3 -875 c2
-176 0 -227 -10 -230 -24 -7 -143 -37 -203 -52 -33 -8 -82 -21 -110 -29 -91
-24 -139 -33 -147 -29 -5 3 -8 106 -8 230 0 171 3 225 13 228 6 2 40 11 75 20
59 15 106 27 240 60 31 8 73 19 92 24 19 6 40 9 45 8 6 -2 11 -89 13 -230z m0
-884 l3 -150 -117 -116 c-64 -64 -120 -116 -124 -116 -4 0 -60 52 -124 116
l-117 116 3 96 c3 88 5 97 23 100 11 1 43 9 70 17 28 7 78 21 113 29 34 9 88
22 120 30 31 8 73 19 92 24 19 6 40 9 45 8 6 -2 11 -63 13 -154z"/>
<path d="M2293 3569 c-153 -70 -190 -271 -72 -388 17 -17 104 -67 193 -111
138 -68 171 -80 213 -80 172 0 291 179 223 333 -32 72 -70 101 -244 187 -145
71 -169 80 -217 79 -30 0 -72 -9 -96 -20z"/>
<path d="M5053 3510 c-173 -86 -211 -115 -243 -187 -68 -154 51 -333 223 -333
42 0 75 12 213 80 174 86 212 115 244 187 68 155 -52 334 -224 333 -43 0 -75
-12 -213 -80z"/>
<path d="M2293 2609 c-190 -88 -188 -354 4 -439 40 -17 67 -20 213 -20 186 0
229 10 289 71 119 119 80 320 -76 389 -40 18 -65 20 -217 19 -146 -1 -177 -3
-213 -20z"/>
<path d="M4933 2609 c-190 -88 -188 -354 4 -439 40 -17 67 -20 213 -20 186 0
229 10 289 71 119 119 80 320 -76 389 -40 18 -65 20 -217 19 -146 -1 -177 -3
-213 -20z"/>
<path d="M613 1889 c-190 -88 -188 -354 4 -439 45 -20 64 -20 978 -20 l933 0
459 -459 c367 -367 469 -463 507 -480 46 -20 64 -21 336 -21 271 0 290 1 336
21 38 17 140 114 507 480 l459 459 933 0 c914 0 933 0 978 20 194 86 194 354
0 440 -45 20 -63 20 -1053 20 -1007 0 -1007 0 -1056 -21 -38 -17 -140 -113
-507 -480 l-459 -459 -138 0 -138 0 -459 459 c-367 366 -469 463 -507 480 -49
21 -49 21 -1060 20 -975 -1 -1012 -1 -1053 -20z"/>
</g>
</svg>
