<?xml version="1.0" standalone="no"?>
<!DOCTYPE svg PUBLIC "-//W3C//DTD SVG 20010904//EN"
 "http://www.w3.org/TR/2001/REC-SVG-20010904/DTD/svg10.dtd">
<svg version="1.0" xmlns="http://www.w3.org/2000/svg"
 width="900.000000pt" height="900.000000pt" viewBox="0 0 900.000000 900.000000"
 preserveAspectRatio="xMidYMid meet">
<g transform="translate(0.000000,900.000000) scale(0.100000,-0.100000)"
stroke="none">
<path d="M2740 8985 c0 -9 -8 -19 -17 -22 -10 -4 -51 -26 -91 -50 -41 -24 -75
-43 -78 -43 -2 0 -34 -18 -70 -41 -37 -22 -77 -45 -88 -50 -12 -6 -30 -15 -41
-22 -11 -7 -63 -37 -115 -67 -52 -30 -104 -60 -115 -67 -11 -7 -27 -15 -35
-19 -19 -10 -160 -91 -180 -104 -8 -6 -22 -13 -30 -17 -8 -4 -35 -19 -61 -33
-25 -15 -67 -40 -95 -55 -142 -79 -203 -117 -207 -129 -3 -7 1 -24 8 -37 8
-13 18 -31 22 -39 42 -80 88 -153 99 -157 8 -3 21 1 30 8 19 15 50 34 80 48
11 5 50 27 85 48 35 22 71 42 79 46 8 4 38 21 65 38 28 16 64 37 80 45 17 8
44 23 60 34 17 10 48 28 70 40 120 66 151 84 165 94 8 6 29 18 45 27 87 47
160 88 248 141 55 32 105 58 112 58 7 0 64 -64 126 -141 63 -78 128 -159 144
-179 36 -45 141 -174 305 -375 67 -82 143 -177 168 -209 26 -33 54 -67 62 -76
8 -9 51 -61 95 -115 44 -55 83 -102 87 -105 4 -3 28 -33 55 -67 57 -74 325
-406 333 -413 5 -4 72 -87 155 -190 17 -21 67 -83 113 -139 l82 -100 0 -105
c0 -88 -4 -112 -21 -146 -24 -46 -107 -130 -147 -151 -15 -7 -33 -18 -41 -23
-39 -29 -201 -76 -273 -78 -62 -3 -70 0 -192 62 -270 136 -316 227 -316 613 0
142 -4 218 -11 222 -6 4 -13 15 -17 24 -4 9 -40 62 -79 116 -40 55 -107 147
-148 205 -41 58 -102 143 -135 190 -34 47 -101 141 -150 210 -180 251 -195
272 -222 291 -34 24 -107 25 -151 1 -17 -10 -59 -36 -92 -57 -33 -22 -68 -44
-77 -50 -9 -5 -49 -30 -88 -55 -39 -25 -79 -50 -88 -55 -9 -6 -44 -28 -77 -50
-72 -47 -95 -62 -115 -71 -8 -4 -43 -27 -77 -51 -35 -24 -65 -43 -67 -43 -3 0
-33 -19 -68 -42 -35 -24 -71 -47 -80 -53 -9 -5 -49 -30 -88 -55 -39 -25 -79
-50 -88 -55 -9 -6 -45 -29 -80 -53 -35 -23 -65 -42 -68 -42 -2 0 -32 -19 -67
-43 -77 -53 -98 -62 -109 -45 -4 7 -8 65 -8 128 0 78 -5 131 -16 165 -25 76
-76 173 -106 202 -32 30 -36 61 -10 70 9 4 49 25 87 48 39 22 77 44 85 48 33
16 61 35 80 52 22 20 21 20 -59 155 -11 19 -25 45 -31 58 -13 29 -36 38 -58
21 -9 -8 -30 -21 -47 -30 -70 -38 -151 -83 -199 -111 -170 -101 -182 -105
-311 -111 -105 -5 -129 -10 -187 -36 -159 -71 -264 -186 -321 -350 -14 -43
-20 -98 -25 -250 l-7 -196 -35 -11 c-19 -6 -47 -26 -62 -45 l-28 -33 0 -481
c1 -522 -2 -498 57 -537 21 -13 47 -18 105 -18 42 0 83 -3 92 -6 14 -6 16 -63
16 -553 0 -300 -4 -551 -8 -557 -4 -7 -47 -13 -101 -16 l-94 -4 -34 -39 -33
-38 0 -1923 c0 -1337 3 -1939 11 -1976 34 -168 87 -272 283 -557 61 -89 110
-137 191 -189 22 -13 23 -14 76 -31 50 -16 214 -14 271 3 64 20 146 74 191
126 32 38 119 161 167 235 51 81 120 198 120 205 0 5 6 21 14 37 24 50 37 96
56 213 19 111 20 178 20 1967 0 1110 -4 1861 -9 1876 -13 34 -53 74 -85 87
-15 5 -61 10 -101 10 -61 0 -76 3 -83 18 -10 21 -9 1083 2 1100 5 8 37 12 93
12 76 0 90 3 118 24 65 50 65 48 65 528 0 238 4 438 8 443 6 10 43 35 84 60 9
5 49 30 88 55 39 25 79 50 88 55 9 6 44 28 77 49 33 22 93 60 133 85 40 25
108 69 150 96 43 28 117 75 165 105 48 30 131 83 183 118 53 34 97 62 99 62 2
0 34 20 71 44 72 48 91 49 115 3 13 -23 131 -190 237 -332 34 -46 62 -87 62
-90 0 -4 20 -32 44 -63 24 -31 84 -115 135 -186 l91 -129 0 -211 c0 -181 3
-220 20 -274 45 -143 124 -267 228 -355 63 -53 61 -52 195 -120 52 -26 100
-53 106 -60 7 -10 11 -477 13 -1638 3 -1601 3 -1625 23 -1664 62 -126 147
-202 274 -246 51 -18 91 -19 648 -19 l594 0 -3 -137 -3 -138 -680 -6 c-411 -4
-698 -10 -725 -16 -208 -48 -381 -181 -474 -363 -62 -124 -71 -163 -71 -325 0
-167 13 -219 81 -341 19 -33 34 -66 34 -72 0 -9 -176 -12 -694 -12 -445 0
-696 -4 -698 -10 -1 -5 -2 -66 0 -135 l3 -125 822 -2 c452 -2 1970 -1 3372 2
l2550 5 3 133 c2 124 4 136 28 174 36 56 84 166 84 190 0 27 19 60 31 53 5 -4
9 46 9 129 0 123 -2 138 -20 156 -11 11 -20 32 -20 46 0 15 -21 70 -47 123
-80 163 -238 301 -408 354 -92 29 -181 37 -403 37 -201 0 -222 2 -230 17 -13
25 -13 235 0 250 8 10 69 13 257 13 282 1 334 9 481 82 122 59 241 179 299
301 23 47 48 108 55 134 7 27 17 47 24 45 9 -1 12 231 12 1038 0 912 -2 1040
-15 1040 -8 0 -18 12 -21 28 -17 68 -69 140 -142 195 -75 56 -121 75 -213 86
-118 14 -160 43 -180 127 -5 21 -9 189 -8 373 0 187 -4 338 -9 343 -5 5 -65 7
-133 6 l-124 -3 -3 -390 c-2 -348 0 -395 15 -440 10 -27 23 -59 30 -70 24 -36
15 -54 -44 -93 -32 -20 -62 -39 -68 -42 -5 -3 -50 -32 -100 -64 -49 -33 -115
-75 -145 -94 -143 -92 -191 -123 -270 -174 -47 -30 -123 -79 -170 -109 -190
-123 -274 -176 -342 -222 -40 -26 -80 -50 -88 -55 -74 -36 -298 -199 -361
-261 -71 -72 -147 -172 -169 -223 -6 -13 -14 -30 -18 -38 -22 -39 -34 -64 -49
-108 -39 -114 -45 -161 -52 -362 l-6 -205 -270 0 c-274 0 -311 4 -410 42 -87
34 -116 50 -239 132 l-66 44 0 461 c0 254 4 466 8 471 4 6 34 19 67 29 33 10
74 22 90 28 17 5 46 14 65 18 19 5 58 16 85 24 28 9 82 25 120 36 39 11 90 27
115 34 25 8 70 21 100 30 30 9 78 23 105 32 28 8 66 19 85 24 19 5 58 16 85
24 28 9 73 22 100 30 28 9 82 25 120 36 39 12 86 25 105 30 19 5 58 16 85 24
28 9 73 22 100 30 125 38 192 58 220 66 267 78 502 272 623 515 140 282 153
553 40 855 -84 222 -284 433 -510 539 -90 42 -146 60 -252 82 -78 17 -137 19
-478 19 -423 0 -431 1 -340 52 140 79 265 134 372 164 209 59 302 66 896 62
l499 -3 68 -34 c71 -36 162 -122 193 -184 41 -77 54 -157 54 -319 l0 -158 135
0 c101 0 135 3 136 13 0 6 0 98 -1 202 -1 204 -8 242 -64 368 -85 194 -287
347 -511 389 -98 18 -993 18 -1155 0 -280 -32 -510 -109 -755 -255 -127 -76
-167 -106 -290 -220 -216 -199 -365 -415 -465 -677 -18 -47 -39 -100 -46 -118
-8 -18 -14 -40 -14 -49 0 -9 -6 -39 -14 -67 -46 -166 -46 -154 -46 -1366 0
-696 -4 -1151 -10 -1160 -7 -12 -34 -15 -122 -16 -62 -1 -123 2 -135 7 l-23 8
0 684 c0 572 -2 686 -14 696 -9 8 -55 11 -137 9 l-124 -3 -5 -495 -5 -495 -25
-3 c-77 -9 -227 -76 -313 -139 -31 -24 -62 -43 -67 -43 -7 0 -10 378 -10 1089
0 1195 -5 1101 57 1101 61 0 244 66 315 114 15 10 32 15 38 11 6 -4 10 -57 10
-138 0 -73 4 -138 9 -145 6 -10 35 -12 135 -6 117 6 127 8 132 28 2 12 4 244
2 517 l-3 496 -80 99 c-44 54 -82 101 -85 104 -3 3 -30 37 -60 75 -30 39 -68
86 -85 106 -16 19 -55 66 -85 104 -30 37 -71 87 -90 110 -19 23 -51 61 -70 85
-19 24 -57 71 -85 105 -68 81 -114 138 -220 270 -49 61 -117 145 -150 185 -33
40 -73 90 -90 110 -16 21 -102 126 -190 234 -88 109 -185 228 -215 266 -30 38
-100 124 -155 191 -55 67 -118 145 -141 173 -22 28 -55 63 -72 78 -18 15 -32
31 -32 37 0 7 -24 11 -60 11 -47 0 -60 -3 -60 -15z m-1935 -1426 c26 -12 67
-40 91 -64 64 -65 84 -139 84 -314 0 -75 -4 -142 -8 -149 -7 -9 -70 -12 -283
-10 l-274 3 -3 160 c-2 130 1 168 15 207 22 61 85 133 143 163 61 32 168 34
235 4z m302 -831 c6 -8 9 -122 9 -276 -1 -221 -4 -264 -16 -272 -21 -14 -786
-13 -811 0 -18 10 -19 24 -19 279 0 147 3 271 7 274 3 4 190 7 413 7 314 0
410 -3 417 -12z m5713 -283 c159 -26 277 -84 398 -199 82 -78 146 -182 193
-316 20 -57 23 -84 23 -215 0 -131 -3 -158 -23 -215 -54 -153 -117 -250 -222
-341 -60 -52 -179 -129 -199 -129 -5 0 -24 -6 -42 -14 -18 -8 -60 -22 -93 -31
-86 -25 -154 -46 -200 -60 -22 -7 -69 -20 -105 -30 -36 -10 -83 -23 -105 -30
-22 -7 -67 -21 -100 -30 -33 -10 -78 -23 -100 -30 -22 -7 -69 -20 -105 -30
-36 -9 -81 -23 -100 -30 -19 -7 -61 -20 -92 -29 -165 -46 -227 -64 -313 -91
-22 -6 -67 -20 -100 -29 -33 -10 -80 -24 -105 -32 -25 -8 -58 -14 -73 -14
l-28 0 4 543 c3 547 5 569 44 737 51 222 157 442 287 596 l28 34 522 0 c396
-1 541 -4 606 -15z m-5995 -1110 l0 -560 -124 -3 c-73 -1 -128 1 -134 7 -12
12 -15 1091 -3 1109 5 9 43 12 134 10 l127 -3 0 -560z m7822 -451 c65 -50 63
-19 63 -840 l0 -743 -90 -61 c-50 -33 -95 -60 -100 -60 -11 0 -40 53 -40 72 0
8 -13 56 -30 108 -16 52 -37 120 -46 150 -9 30 -22 75 -30 100 -7 25 -28 92
-45 150 -17 58 -35 115 -40 128 -5 13 -14 45 -20 70 -5 26 -31 90 -56 142 -38
79 -59 109 -127 176 -78 78 -173 144 -227 157 -15 4 -37 15 -49 25 l-22 18 71
45 c40 24 80 49 89 54 9 6 55 35 102 66 47 31 119 77 160 104 41 27 115 75
165 107 89 58 90 58 164 58 64 0 79 -3 108 -26z m-7653 -402 c6 -11 -689 -532
-709 -532 -13 0 -15 37 -15 263 0 145 3 267 7 270 9 10 711 9 717 -1z m6686
-286 c96 -23 160 -62 225 -135 58 -65 70 -96 170 -431 7 -25 27 -92 44 -150
18 -58 39 -130 48 -160 9 -30 22 -73 29 -95 31 -102 36 -124 30 -134 -8 -12
-1580 -17 -1610 -5 -14 5 -16 28 -16 153 0 274 51 422 199 574 53 55 96 86
309 223 48 32 111 72 140 91 128 84 126 83 257 83 66 -1 145 -7 175 -14z
m-6564 -86 c0 -41 -2 -85 -5 -97 -7 -26 -817 -637 -832 -628 -5 4 -9 46 -9 95
l0 89 43 35 c127 106 774 585 787 583 12 -2 15 -19 16 -77z m-6 -497 c0 -5 3
-55 6 -113 3 -58 3 -129 -1 -158 l-7 -53 -397 -298 c-219 -164 -407 -302 -419
-306 l-22 -7 2 169 3 168 400 302 c357 269 434 322 435 296z m3378 -614 l-3
-474 -146 -3 c-166 -3 -201 6 -243 61 l-26 34 0 232 0 233 36 71 c80 160 190
268 322 317 26 9 50 14 55 10 4 -3 6 -220 5 -481z m570 -202 l2 -278 -142 3
-143 3 -3 265 c-1 146 0 271 3 278 3 10 37 12 142 10 l138 -3 3 -278z m348
124 c97 -49 146 -68 232 -90 81 -21 90 -21 1383 -21 1167 0 1308 2 1367 16 84
21 126 36 230 86 46 22 86 37 90 34 10 -11 -20 -140 -45 -190 -56 -111 -175
-201 -298 -225 -45 -9 -420 -11 -1496 -9 l-1435 3 -36 25 c-59 40 -68 70 -68
239 0 125 3 161 15 161 1 0 28 -13 61 -29z m-4293 -83 c3 -46 1 -90 -4 -100
-13 -25 -805 -618 -824 -618 -12 0 -15 16 -15 88 0 48 4 93 8 99 12 19 805
612 818 613 7 0 13 -32 17 -82z m1 -641 c1 -125 -2 -161 -14 -176 -8 -10 -105
-85 -215 -166 -110 -82 -215 -160 -234 -174 -66 -50 -147 -111 -191 -142 -25
-18 -65 -50 -90 -70 -25 -21 -57 -42 -72 -48 l-28 -11 0 165 c0 159 1 166 23
184 84 73 795 600 806 598 12 -2 15 -31 15 -160z m6464 -94 l-3 -138 -969 -3
c-622 -1 -973 1 -981 8 -12 10 -12 240 0 260 4 6 354 10 981 10 l975 0 -3
-137z m355 -432 c72 -1 102 -14 60 -27 -83 -25 -181 -113 -223 -199 l-22 -45
-142 0 c-97 0 -146 -4 -154 -12 -14 -14 -17 -235 -3 -257 6 -9 42 -14 137 -16
71 -1 136 -3 146 -4 9 0 26 -20 37 -44 42 -86 163 -190 246 -211 22 -6 26 -9
14 -17 -16 -10 -3667 -13 -3694 -2 -13 4 0 14 46 36 66 30 199 152 199 181 0
8 9 24 19 37 19 23 24 24 163 24 l143 1 0 139 0 140 -150 5 -150 5 -18 38
c-40 80 -154 184 -221 201 -53 13 -13 25 94 28 91 3 3259 2 3473 -1z m-3865
-13 c-3 -7 -13 -15 -24 -17 -37 -7 -126 -75 -164 -125 -76 -102 -84 -128 -85
-256 0 -110 1 -118 33 -180 49 -98 120 -166 219 -211 52 -24 54 -39 4 -39 -32
0 -126 28 -180 54 -48 23 -143 114 -169 161 -54 101 -69 241 -35 340 54 158
208 283 351 284 39 1 53 -2 50 -11z m4360 -7 c29 -10 58 -23 65 -30 6 -6 16
-11 22 -11 19 0 121 -112 145 -160 87 -171 52 -373 -87 -500 -60 -55 -93 -74
-178 -101 -66 -21 -102 -24 -125 -9 -12 7 -11 10 5 15 60 19 116 55 165 104
140 141 166 318 74 501 -26 52 -126 145 -184 172 -27 12 -50 26 -50 30 0 15
96 8 148 -11z m-7314 -29 c0 -18 -1 -61 -2 -96 l-2 -64 -52 -39 c-28 -21 -65
-48 -82 -61 -17 -12 -38 -28 -46 -35 -63 -52 -622 -467 -629 -467 -14 0 -21
27 -27 104 -7 80 -4 84 89 150 41 28 231 170 316 235 18 14 52 39 75 56 22 16
47 35 54 42 8 7 34 27 60 45 26 18 53 38 62 45 8 7 35 27 58 45 120 91 127 93
126 40z m3153 -240 c54 -29 76 -66 76 -129 0 -49 -4 -58 -35 -90 -63 -62 -166
-55 -213 15 -47 69 -23 162 53 202 46 24 78 24 119 2z m3931 4 c94 -49 114
-162 40 -233 -26 -25 -37 -28 -93 -28 -52 0 -68 4 -88 23 -33 31 -61 95 -54
124 16 63 90 128 145 128 13 0 35 -6 50 -14z m-7085 -303 c2 -5 0 -64 -5 -133
-12 -182 -38 -248 -180 -460 -109 -163 -138 -195 -193 -210 -79 -22 -141 8
-202 100 -16 25 -50 76 -76 113 -26 38 -47 74 -47 81 0 7 19 26 43 43 23 18
56 42 72 54 17 12 64 48 105 78 41 31 77 59 80 62 3 3 25 20 50 37 25 18 74
55 110 82 36 27 81 61 100 74 19 13 51 38 70 55 34 29 65 39 73 24z"/>
<path d="M5202 1388 c-8 -8 -12 -51 -12 -128 0 -157 -1 -155 157 -147 78 4
119 11 125 19 13 21 10 242 -4 256 -8 8 -52 12 -133 12 -81 0 -125 -4 -133
-12z"/>
<path d="M5762 1388 c-13 -13 -17 -235 -4 -254 4 -7 58 -14 128 -18 158 -10
154 -14 154 143 0 78 -4 121 -12 129 -8 8 -52 12 -133 12 -81 0 -125 -4 -133
-12z"/>
<path d="M6324 1387 c-2 -7 -3 -71 -2 -143 l3 -129 130 4 c83 2 133 7 137 15
13 19 9 241 -4 254 -18 18 -257 17 -264 -1z"/>
<path d="M6892 1388 c-14 -14 -17 -235 -3 -257 7 -10 40 -14 137 -15 l129 -1
0 140 0 140 -125 3 c-89 2 -129 -1 -138 -10z"/>
<path d="M3948 6593 c-23 -6 -25 -15 -24 -148 l1 -120 140 0 140 0 3 125 c2
109 0 126 -15 137 -16 12 -204 17 -245 6z"/>
<path d="M4490 5196 l0 -135 123 -3 c67 -2 130 1 140 5 16 7 17 21 15 135 l-3
127 -137 3 -138 3 0 -135z"/>
<path d="M1547 824 c-4 -4 -7 -65 -7 -135 0 -113 2 -127 18 -130 9 -2 72 -3
140 -1 l123 3 -3 132 -3 132 -131 3 c-71 1 -133 -1 -137 -4z"/>
</g>
</svg>
