<svg xmlns="http://www.w3.org/2000/svg" viewBox="0 0 512 512">
  <path d="M256.5,45C141.5,45,45,141.5,45,256.5S141.5,468,256.5,468,468,371.5,468,256.5,371.5,45,256.5,45Zm69.91,338.9a6.77,6.77,0,0,1-4.88,2.08,6.63,6.63,0,0,1-4.88-2.08L223.26,283.22l-35.43,28.14,20.9-48.87L137,193.08l48.87-20.9L194,151.91,90.91,157.85l20.9,48.87L48.78,244.76a6.63,6.63,0,0,1-2.08,4.88,6.71,6.71,0,0,1-9.76,0L43.15,234a6.66,6.66,0,0,1,0-9.76L143.85,128a6.67,6.67,0,0,1,9.76,0L230.1,214.26l48.87-20.9L302.87,191l-35.43-28.14,84.17,102.63a6.67,6.67,0,0,1,0,9.76Z"/>
  <path d="M355.19,210.85a6.7,6.7,0,0,1-6.47,1.18L298.58,202l10-30.11a6.69,6.69,0,0,1,2.36-2.87l18.67-12.56a6.68,6.68,0,0,1,7.59-.07l18.67,12.56a6.7,6.7,0,0,1,2.36,2.87l10,30.11-50.13,10.05a6.72,6.72,0,0,1-6.47-1.18,6.72,6.72,0,0,1-2.36-8.8L316,151.28a6.71,6.71,0,0,1,9.94-2.05L352.71,196A6.72,6.72,0,0,1,355.19,210.85Z"/>
</svg>
