<?xml version="1.0" standalone="no"?>
<!DOCTYPE svg PUBLIC "-//W3C//DTD SVG 20010904//EN"
 "http://www.w3.org/TR/2001/REC-SVG-20010904/DTD/svg10.dtd">
<svg version="1.0" xmlns="http://www.w3.org/2000/svg"
 width="300.000000pt" height="243.000000pt" viewBox="0 0 300.000000 243.000000"
 preserveAspectRatio="xMidYMid meet">
<g transform="translate(0.000000,243.000000) scale(0.050000,-0.050000)"
stroke="none">
<path d="M2838 4711 c-7 -7 -115 -35 -240 -63 -126 -28 -322 -72 -438 -98
-115 -26 -294 -65 -397 -88 -103 -23 -220 -51 -260 -62 -40 -11 -212 -51 -383
-90 -171 -39 -341 -79 -380 -90 -38 -11 -141 -36 -228 -55 -200 -45 -207 -55
-176 -272 44 -304 68 -334 249 -314 l115 13 3 -411 c2 -226 5 -438 8 -471 3
-33 6 -625 7 -1315 l2 -1255 350 0 c372 0 375 1 440 106 38 63 256 74 1480 74
1231 0 1437 -11 1485 -76 81 -109 61 -104 435 -104 l350 0 3 1075 c2 591 5
1089 7 1105 2 17 5 307 7 645 l3 615 138 0 c169 0 167 -1 219 255 58 284 55
288 -204 345 -203 44 -500 111 -803 180 -362 83 -633 143 -860 192 -132 29
-339 74 -460 101 -232 53 -452 79 -472 58z m335 -200 c53 -17 246 -62 427
-101 182 -39 384 -84 450 -100 66 -17 242 -57 390 -90 1153 -258 1076 -229
1010 -386 -42 -102 -45 -102 -305 -36 -264 68 -636 156 -935 222 -110 24 -272
60 -360 81 -88 20 -259 57 -380 80 -121 24 -256 51 -300 60 -176 38 -225 31
-1130 -160 -104 -22 -226 -49 -270 -61 -44 -11 -233 -55 -420 -99 -187 -43
-429 -101 -538 -128 -217 -54 -246 -51 -274 21 -60 158 -35 175 390 269 376
83 608 137 822 188 277 67 467 110 820 186 154 33 298 65 320 69 83 19 189 13
283 -15z m67 -461 c235 -40 458 -88 970 -209 242 -57 514 -120 604 -141 91
-21 183 -48 205 -60 41 -21 41 -35 41 -1683 l0 -1661 -125 13 c-69 7 -158 17
-198 23 l-72 11 7 503 c4 277 11 965 15 1529 l8 1025 -1707 0 -1707 0 10 -915
c5 -503 13 -1196 19 -1540 l9 -625 -210 0 -210 0 5 1155 c3 635 10 1384 16
1664 l10 509 210 47 c116 26 305 69 420 97 116 27 282 66 370 87 902 212 999
225 1310 171z m1272 -2055 c-13 -1241 -23 -1454 -68 -1499 -64 -64 -74 15 -80
605 l-6 579 -84 2 c-46 2 -178 9 -294 15 l-210 13 -5 485 -6 485 -769 0 -770
0 0 -490 0 -490 -180 -2 c-99 -2 -189 -5 -200 -8 -11 -3 -60 -6 -109 -7 l-89
-3 -6 -569 c-5 -519 -9 -573 -42 -605 -62 -61 -87 5 -104 269 -14 233 6 2421
23 2450 5 8 685 15 1511 15 l1502 0 -14 -1245z m-940 538 c2 -2 9 -190 17
-418 l14 -415 -611 0 -612 0 0 45 c0 25 10 217 23 426 l23 381 572 -8 c315 -5
573 -10 574 -11z m198 -1010 l400 -13 5 -515 6 -515 -551 0 -550 0 0 540 0
539 145 -11 c80 -7 325 -18 545 -25z m-850 -513 l0 -530 -563 0 -563 0 12 510
c6 280 17 519 24 530 8 13 210 20 551 20 l539 0 0 -530z"/>
</g>
</svg>
